<svg xmlns="http://www.w3.org/2000/svg" viewBox="0 0 1016.2 205"><style>.a{fill:#99acf5;}.b{fill:#ccd5fa;}.c{fill:#eee;}</style><path d="M163 43C163 20.9 127.2 3 83 3 38.8 3 3 20.9 3 43 3 43 3 43 3 43V43c0 0 0 0 0 0 0 0 0 0 0 0v40 40 40 0c0 3.1 0.7 6 2 8.9 0 0 0 0 0 0 1.3 3 3.3 5.8 5.9 8.4 0 0 0 0 0 0 2.6 2.7 5.8 5.2 9.5 7.6 0 0 0 0 0 0 3.7 2.3 8 4.5 12.7 6.3 0 0 0 0 0 0 4.7 1.9 9.7 3.5 15.2 4.8 0 0 0 0 0 0 5.3 1.3 11 2.3 16.9 3 0 0 0 0 0 0 5.7 0.6 11.7 1 17.8 1 0 0 0 0 0 0 6.1 0 12.1-0.3 17.8-1 0 0 0 0 0 0 5.9-0.7 11.6-1.7 16.9-3 0 0 0 0 0 0 5.4-1.3 10.5-2.9 15.2-4.8 0 0 0 0 0 0 4.7-1.9 8.9-4 12.7-6.3 0 0 0 0 0 0 3.7-2.3 6.9-4.9 9.5-7.6 0 0 0 0 0 0 2.6-2.7 4.6-5.5 5.9-8.4 0 0 0 0 0 0 1.3-2.9 2-5.8 2-8.9V163 123 83 43 43c0 0 0 0 0 0z" fill="#002fe5"/><path d="M161 51.9 83 43 100.8 4 100.8 4C95.1 3.3 89.1 3 83 3 76.9 3 70.9 3.3 65.2 4 59.3 4.7 53.6 5.7 48.3 6.9 42.9 8.3 37.8 9.9 33.1 11.7c-4.7 1.9-8.9 4-12.7 6.3-3.7 2.3-6.9 4.9-9.5 7.6H10.9C8.3 28.3 6.3 31.1 5 34.1L5 34.1 83 43 65.2 82v0c0 0 0 0 0 0v40c0 0 0 0 0 0 0 0 0 0 0 0-5.9-0.7-11.6-1.7-16.9-3v40c0 0 0 0 0 0-5.4-1.3-10.5-2.9-15.2-4.8v40c4.7 1.9 9.7 3.5 15.2 4.8 0 0 0 0 0 0 5.3 1.3 11 2.3 16.9 3 0 0 0 0 0 0 5.7 0.7 11.7 1 17.8 1 0 0 0 0 0 0 6.1 0 12.1-0.3 17.8-1 0 0 0 0 0 0 5.9-0.7 11.6-1.7 16.9-3 0 0 0 0 0 0 5.4-1.3 10.5-2.9 15.2-4.8 0 0 0 0 0 0 4.7-1.9 8.9-4 12.7-6.3V148c0 0 0 0 0 0 3.7-2.3 6.9-4.9 9.5-7.6v-40c0 0 0 0-0.1 0.1 0 0 0 0 0.1-0.1 0 0 0 0 0 0 2.6-2.7 4.6-5.5 5.9-8.4V51.9c0 0 0 0 0 0z" fill="#3359ea"/><path d="M155.1 60.4 83 43V3C76.9 3 70.9 3.3 65.2 4 59.3 4.7 53.6 5.7 48.3 6.9c-5.4 1.3-10.5 2.9-15.2 4.8-4.7 1.9-8.9 4-12.7 6.3-3.7 2.3-6.9 4.9-9.5 7.6l0 0 72.1 17.4v40c0 0 0 0 0 0v40c0 0 0 0 0 0-6.1 0-12.1-0.3-17.8-1 0 0 0 0 0 0v40c-5.9-0.7-11.6-1.7-16.9-3v40c5.3 1.3 11 2.3 16.9 3 0 0 0 0 0 0 5.7 0.7 11.7 1 17.8 1 0 0 0 0 0 0 6.1 0 12.1-0.3 17.8-1 0 0 0 0 0 0 5.9-0.7 11.6-1.7 16.9-3 0 0 0 0 0 0 5.4-1.3 10.5-2.9 15.2-4.8v-40c0 0 0 0 0 0 4.7-1.9 8.9-4 12.7-6.3v-40 0c0 0 0 0 0 0 3.7-2.3 6.9-4.9 9.5-7.6V60.4c0 0 0 0 0 0z" fill="#6682ef"/><path d="M65.2 4 65.2 4C59.3 4.7 53.6 5.7 48.3 6.9c-5.4 1.3-10.5 2.9-15.2 4.8-4.7 1.9-8.9 4-12.7 6.3l0 0 62.5 24.9z" class="a"/><path d="m145.5 67.9v0c0 0 0 0 0 0L145.5 67.9 83 43 100.8 82v0c0 0 0 0 0 0v40c0 0 1.5-0.2 0 0 0 0 0 0 0 0-5.7 0.6-11.7 1-17.8 1 0 0 0 0 0 0V163c-6.1 0-12.1-0.3-17.8-1 0 0 0 0 0 0v40c0 0 0 0 0 0 5.7 0.6 11.7 1 17.8 1 0 0 0 0 0 0 6.1 0 12.1-0.3 17.8-1 0 0 0 0 0 0 5.9-0.7 11.6-1.7 16.9-3v-40c0 0 0 0 0 0 5.4-1.3 10.5-2.9 15.2-4.8v-40c-0.7 0.3-0.7 0.3 0 0 0 0 0 0 0 0 4.7-1.9 8.9-4 12.7-6.3V67.9c0 0 0 0 0 0z" class="a"/><path d="M48.3 7 83 43 33.1 11.7 33.1 11.7C37.8 9.9 42.9 8.3 48.3 6.9Z" class="b"/><path d="m132.9 74.3 0 0-49.9-31.3 34.7 36 0 0c0 0 0 0 0 0v40c0 0 0 0 0 0 5.4-1.3 10.5-2.9 15.2-4.8v-40c0 0 0 0 0 0z" class="b"/><path d="m100.8 122c0 0 0 0 0 0v40c0 0 0 0 0 0 5.9-0.7 11.6-1.7 16.9-3v-40c-5.3 1.3-11 2.3-16.9 3z" class="b"/><path d="m83 163c0 0 0 0 0 0V203c0 0 0 0 0 0 6.1 0 12.1-0.3 17.8-1v-40c-5.7 0.6-11.7 1-17.8 1z" class="b"/><path d="m828 85.8c0.1 2.6-0.4 10.8-2.1 23.3l0 0h0l-4.6 32.6c-3.5 24.8-19.5 37.3-41.7 37.3-16.6 0-26.5-7-26.5-17.4 0-7.8 5.5-12.7 11.1-15.7-5.2-3.7-7.3-10.8-5.6-20.8l2.8-16 0.4-2.6c1.9-11.1 1.4-17.7 0.5-19.5 5.6-1.3 14.3-3.1 18-3.1 8.2 0 11.8 3.5 8.5 22.3l-0.5 2.8h0l-2.3 12.5c-0.8 4.1 0.4 6.7 2.9 6.7 4.7 0 8.2-7.5 10-19.2v0h0l0 0c1.6-11.3 1.9-19.4 1.7-22.3 9.5-1.4 18.5-1.8 27.3-1zm-33.6 64.2 1.8-12.5c-3.9 6.1-10.1 9.8-16.8 11-0.2 1.2-0.4 2.5-0.4 3.9 0 5.2 2.2 8 6.2 8 4.2 0 8.3-3.1 9.3-10.3z" class="c"/><path d="m289.7 151.4c-6.4 0.7-12.3 0.9-18 0.3l-3.8-5.5c-5 4-11.9 7.1-20.5 7.1-19.1 0-33.9-14.6-33.9-38.7 0-30.5 24-54.9 53.2-54.9 11.8 0 20.9 4 25 8-0.4 4.8-3.3 16.4-8.3 24.8-2-3.7-8-8.5-16.9-8.5-14.4 0-23.7 11.2-23.7 25.5 0 12.2 7 19.1 18.9 19.1 1.4 0 2.7-0.1 4-0.3l1.6-11.1H255.8c1.5-5.4 3.8-10.9 4.5-16.2h36.4z" class="c"/><path d="m370.6 88c-0.1 3.8-0.7 11-2.1 21l-3.6 25.9c-1 6.9-0.4 14.2 0.4 16.4-5.7 0.8-14.6 1.8-18.4 1.8-6.4 0-9.6-2.1-9.7-9.2-4.2 5.7-10.3 9.2-17.7 9.2-12.8 0-20.3-10-20.3-25.5 0-25.6 20.1-43.8 48.1-43.8 9.8 0 18.2 2.2 23.4 4.1zm-29.1 21.8 0.7-4.9c-10.9 0-15 8.9-15 18.8 0 5.7 1.5 8.6 4.4 8.6 4.7 0 7.9-9.4 9.9-22.5z" class="c"/><path d="m412.3 75.7-7.4 52.4h-0.1l0.1 0.1-1 6.8c-1 6.9-0.4 14.2 0.4 16.4-5.7 0.8-14.6 1.8-18.4 1.8-8.2 0-11-3.4-9.2-16.5l8.6-60.9c1.6-11.1 1.2-17.7 0.5-19.5 5.6-1.3 14.3-3.1 18-3.1 8.3 0 11.1 3.4 8.4 22.3z" class="c"/><path d="m416.9 127.2 3.3-18.6c2-11.5 1.7-19.1 0.9-21.6 5.6-1.3 14.3-3.1 18-3.1 8.3 0 11.6 4.9 8.1 24.7l-2.7 15.1c-0.7 4.1-0.3 6.8 3.7 6.8 8.3 0 12-10.4 12-21.5 0-7.8-1.8-16-5-21 3.7-1.7 10.7-4 16.6-4 8.8 0 13.6 8.4 13.6 19.9 0 20.8-15.7 49.5-47.3 49.5-18 0-24-9.5-21.1-26.1z" class="c"/><path d="m559.5 88c-0.1 3.8-0.7 11-2.1 21l-3.6 25.9c-1 6.9-0.4 14.2 0.4 16.4-5.7 0.8-14.6 1.8-18.4 1.8-6.4 0-9.6-2.1-9.7-9.2-4.2 5.7-10.3 9.2-17.7 9.2-12.8 0-20.3-10-20.3-25.5 0-25.6 20.1-43.8 48.1-43.8 9.8 0 18.2 2.2 23.4 4.1zm-29.1 21.8 0.7-4.9c-10.9 0-15 8.9-15 18.8 0 5.7 1.5 8.6 4.4 8.6 4.7 0 7.9-9.4 9.9-22.5z" class="c"/><path d="m635.1 110.1-3.2 18.1-1.2 6.9c-1.2 6.8-0.7 14.1 0.3 16.4-5.6 0.8-14.3 1.9-18 1.9-8.2 0-11.8-3.3-9.5-16.4l1.5-8.8 2.6-14.6c0.7-4.1-0.4-6.7-3-6.7-4.7 0-8.5 8.3-10.4 21.4-1.6 11.3-1.9 19.4-1.7 22.3-9.5 1.4-18.5 1.8-27.3 1-0.1-2.6 0.4-10.8 2.1-23.3l3-21.6c1.6-11.1 1.2-17.7 0.5-19.5 5.6-1.3 14.3-3.1 18-3.1 6.7 0 9.8 2.3 9.4 13.2 4.7-8.5 12.9-13.2 21.2-13.2 11.9 0 18.6 9.5 15.7 26.1z" class="c"/><path d="m712 88c-0.1 3.8-0.7 11-2.1 21l-3.6 25.9c-1 6.9-0.4 14.2 0.4 16.4-5.7 0.8-14.6 1.8-18.4 1.8-6.4 0-9.6-2.1-9.7-9.2-4.2 5.7-10.3 9.2-17.7 9.2-12.8 0-20.3-10-20.3-25.5 0-25.6 20.1-43.8 48.1-43.8 9.8 0 18.2 2.2 23.4 4.1zm-29.1 21.8 0.7-4.9c-10.9 0-15 8.9-15 18.8 0 5.7 1.5 8.6 4.4 8.6 4.7 0 7.9-9.4 9.9-22.5z" class="c"/><path d="m753.7 75.7-7.4 52.4h-0.1l0.1 0.1-1 6.8c-1 6.9-0.4 14.2 0.4 16.4-5.7 0.8-14.6 1.8-18.4 1.8-8.2 0-11-3.4-9.2-16.5l8.6-60.9c1.6-11.1 1.2-17.7 0.5-19.5 5.6-1.3 14.3-3.1 18-3.1 8.2 0 11.1 3.4 8.4 22.3z" class="c"/><path d="m835.1 151.2c-2.4-7.5-2.6-15.1-1.5-22.9 2.9 2.4 10.4 5.3 18.1 5.3 3.9 0 6.3-0.9 6.3-2.6 0-1.8-2.6-3-7.3-5.3-4.9-2.4-14.1-6.8-14.1-18 0-15.1 15.9-23.8 34.6-23.8 7.5 0 13.9 1.5 16.7 2.7-0.4 6.1-2.5 12.7-6 19.6-2.6-1.9-7.5-4.2-12.9-4.2-2.8 0-5.3 0.7-5.3 2.7 0 2.1 2.9 3.7 7.9 6.4 4.8 2.6 13.4 7.2 13.4 19 0 15.4-14.1 23.3-33.7 23.3-7.6 0-13.6-1.2-16.3-2.1z" class="c"/><path d="m890.7 125.9c0-21.9 18.3-41.9 40.4-41.9 15 0 22.3 9.1 22.3 20.2 0 13.9-11.5 22-25.1 22-4.4 0-8.3-1-11.5-2.5 0 0.2 0 0.4 0 0.6 0 5 5.7 8.6 13.8 8.6 7.4 0 14.2-2.9 17.3-5.1 0.4 4.9-0.9 10.5-2.6 16.8-4.7 3.7-14.6 8.7-26.2 8.7-17.6 0-28.2-10.7-28.3-27.4zm39.3-19.8c0-3.1-1.3-4.5-3.8-4.5-5 0-8.7 5.5-10.2 12.4 1.2 0.3 2.6 0.5 4.1 0.5 6.5 0 9.9-3.6 9.9-8.5z" class="c"/><path d="m1014.1 84.2c-0.3 9.7-3.3 20.5-8.5 31.7-10-6.2-18.3-0.9-20.2 12.3-1.6 11.3-1.9 19.4-1.7 22.3-9.5 1.4-18.5 1.8-27.3 1-0.1-2.6 0.4-10.8 2.1-23.3l3-21.6c1.6-11.1 1.2-17.7 0.5-19.5 5.6-1.3 14.3-3.1 18-3.1 6.8 0 9.9 2.3 9.3 13.5 6.2-8.7 15.5-13.3 24.7-13.3z" class="c"/></svg>