<svg id="Layer_1" data-name="Layer 1" xmlns="http://www.w3.org/2000/svg" viewBox="0 0 166 205"><defs><style>.cls-1{fill:#002fe5;}.cls-2{fill:#3359ea;}.cls-3{fill:#6682ef;}.cls-4{fill:#99acf5;}.cls-5{fill:#ccd5fa;}</style></defs><path class="cls-1" d="M163,43c0-22.11-35.79-40-80-40S3,20.89,3,43H3V163H3a21.29,21.29,0,0,0,2,8.91l0,0a30,30,0,0,0,5.89,8.44l0,0a49.64,49.64,0,0,0,9.53,7.55h0a78.25,78.25,0,0,0,12.66,6.33h0a109.15,109.15,0,0,0,15.16,4.77h0A140.26,140.26,0,0,0,65.2,202h0A158.06,158.06,0,0,0,83,203h0a157.92,157.92,0,0,0,17.8-1h0a139.92,139.92,0,0,0,16.91-2.95h0a109.15,109.15,0,0,0,15.16-4.77h0A77.73,77.73,0,0,0,145.54,188h0a50,50,0,0,0,9.53-7.55l0,0a30,30,0,0,0,5.89-8.43v0a21.23,21.23,0,0,0,2-8.9h0V43h0Z"/><path class="cls-2" d="M161,51.9,83,43,100.8,4V4A160.7,160.7,0,0,0,65.19,4,138.3,138.3,0,0,0,48.28,7a110.23,110.23,0,0,0-15.17,4.77,78.38,78.38,0,0,0-12.67,6.34,50.2,50.2,0,0,0-9.54,7.58h0A30.37,30.37,0,0,0,5,34.1H5L83,43,65.2,82h0v40h0a140.26,140.26,0,0,1-16.91-3v40h0a110.52,110.52,0,0,1-15.16-4.76v40a109.15,109.15,0,0,0,15.16,4.77h0a138.3,138.3,0,0,0,16.91,3h0A158.06,158.06,0,0,0,83,203h0a157.92,157.92,0,0,0,17.8-1h0a138,138,0,0,0,16.91-3h0a109.15,109.15,0,0,0,15.16-4.77h0A77.73,77.73,0,0,0,145.54,188V148h0a50,50,0,0,0,9.53-7.55v-40l-.08.07.08-.07,0,0A30.18,30.18,0,0,0,161,91.93v-40Z"/><path class="cls-3" d="M155.08,60.36,83,43V3A158.24,158.24,0,0,0,65.19,4,138.3,138.3,0,0,0,48.28,7a110.23,110.23,0,0,0-15.17,4.77,78.38,78.38,0,0,0-12.67,6.34,50.2,50.2,0,0,0-9.54,7.58h0L83,43V83h0v40h0a158.06,158.06,0,0,1-17.8-1h0v40a140.26,140.26,0,0,1-16.91-2.95v40A140.26,140.26,0,0,0,65.2,202h0A158.06,158.06,0,0,0,83,203h0a157.92,157.92,0,0,0,17.8-1h0a139.92,139.92,0,0,0,16.91-2.95h0a109.15,109.15,0,0,0,15.16-4.77v-40h0A77.73,77.73,0,0,0,145.54,148V108h0a50,50,0,0,0,9.53-7.55v-40l0,0Z"/><path class="cls-4" d="M65.2,4V4A138.3,138.3,0,0,0,48.28,7a110.23,110.23,0,0,0-15.17,4.77,78.38,78.38,0,0,0-12.67,6.34h0L83,43Z"/><path class="cls-4" d="M145.54,67.94h0L83,43l17.8,39h0v40h0A157.92,157.92,0,0,1,83,123h0v40a158.06,158.06,0,0,1-17.8-1h0v40h0A158.06,158.06,0,0,0,83,203h0a157.92,157.92,0,0,0,17.8-1h0a139.92,139.92,0,0,0,16.91-2.95v-40h0a110.52,110.52,0,0,0,15.16-4.76v-40h0A77.73,77.73,0,0,0,145.54,108V68h0Z"/><path class="cls-5" d="M48.29,7,83,43,33.12,11.73h0A110.23,110.23,0,0,1,48.28,7Z"/><path class="cls-5" d="M132.89,74.28h0L83,43l34.71,36h0v40h0a110.52,110.52,0,0,0,15.16-4.76v-40Z"/><path class="cls-5" d="M100.8,122h0v40h0a139.92,139.92,0,0,0,16.91-2.95v-40A139.92,139.92,0,0,1,100.8,122Z"/><path class="cls-5" d="M83,163h0v40h0a157.92,157.92,0,0,0,17.8-1V162A157.92,157.92,0,0,1,83,163Z"/></svg>