<?xml version="1.0" encoding="UTF-8" standalone="no"?>
<svg
   xmlns:dc="http://purl.org/dc/elements/1.1/"
   xmlns:cc="http://creativecommons.org/ns#"
   xmlns:rdf="http://www.w3.org/1999/02/22-rdf-syntax-ns#"
   xmlns:svg="http://www.w3.org/2000/svg"
   xmlns="http://www.w3.org/2000/svg"
   height="200"
   width="482.39999"
   id="svg46"
   version="1.1"
   viewBox="0 0 482.39999 200">
  <metadata
     id="metadata52">
    <rdf:RDF>
      <cc:Work
         rdf:about="">
        <dc:format>image/svg+xml</dc:format>
        <dc:type
           rdf:resource="http://purl.org/dc/dcmitype/StillImage" />
        <dc:title></dc:title>
      </cc:Work>
    </rdf:RDF>
  </metadata>
  <defs
     id="defs50" />
  <style
     id="style2">.a{fill:#99acf5;}.b{fill:#ccd5fa;}.c{fill:#eee;}</style>
  <path
     style="fill:#002fe5"
     id="path4"
     d="M 160,40 C 160,17.9 124.2,0 80,0 35.8,0 0,17.9 0,40 c 0,0 0,0 0,0 v 0 c 0,0 0,0 0,0 0,0 0,0 0,0 v 40 40 40 0 c 0,3.1 0.7,6 2,8.9 0,0 0,0 0,0 1.3,3 3.3,5.8 5.9,8.4 0,0 0,0 0,0 2.6,2.7 5.8,5.2 9.5,7.6 0,0 0,0 0,0 3.7,2.3 8,4.5 12.7,6.3 0,0 0,0 0,0 4.7,1.9 9.7,3.5 15.2,4.8 0,0 0,0 0,0 5.3,1.3 11,2.3 16.9,3 0,0 0,0 0,0 5.7,0.6 11.7,1 17.8,1 0,0 0,0 0,0 6.1,0 12.1,-0.3 17.8,-1 0,0 0,0 0,0 5.9,-0.7 11.6,-1.7 16.9,-3 0,0 0,0 0,0 5.4,-1.3 10.5,-2.9 15.2,-4.8 0,0 0,0 0,0 4.7,-1.9 8.9,-4 12.7,-6.3 0,0 0,0 0,0 3.7,-2.3 6.9,-4.9 9.5,-7.6 0,0 0,0 0,0 2.6,-2.7 4.6,-5.5 5.9,-8.4 0,0 0,0 0,0 1.3,-2.9 2,-5.8 2,-8.9 v 0 -40 -40 -40 0 c 0,0 0,0 0,0 z" />
  <path
     style="fill:#3359ea"
     id="path6"
     d="M 158,48.9 80,40 97.8,1 V 1 C 92.1,0.3 86.1,0 80,0 73.9,0 67.9,0.3 62.2,1 56.3,1.7 50.6,2.7 45.3,3.9 c -5.4,1.4 -10.5,3 -15.2,4.8 -4.7,1.9 -8.9,4 -12.7,6.3 -3.7,2.3 -6.9,4.9 -9.5,7.6 v 0 C 5.3,25.3 3.3,28.1 2,31.1 v 0 L 80,40 62.2,79 v 0 c 0,0 0,0 0,0 v 40 c 0,0 0,0 0,0 0,0 0,0 0,0 -5.9,-0.7 -11.6,-1.7 -16.9,-3 v 40 c 0,0 0,0 0,0 -5.4,-1.3 -10.5,-2.9 -15.2,-4.8 v 40 c 4.7,1.9 9.7,3.5 15.2,4.8 0,0 0,0 0,0 5.3,1.3 11,2.3 16.9,3 0,0 0,0 0,0 5.7,0.7 11.7,1 17.8,1 0,0 0,0 0,0 6.1,0 12.1,-0.3 17.8,-1 0,0 0,0 0,0 5.9,-0.7 11.6,-1.7 16.9,-3 0,0 0,0 0,0 5.4,-1.3 10.5,-2.9 15.2,-4.8 0,0 0,0 0,0 4.7,-1.9 8.9,-4 12.7,-6.3 V 145 c 0,0 0,0 0,0 3.7,-2.3 6.9,-4.9 9.5,-7.6 v -40 c 0,0 0,0 -0.1,0.1 0,0 0,0 0.1,-0.1 0,0 0,0 0,0 2.6,-2.7 4.6,-5.5 5.9,-8.4 V 48.9 c 0,0 0,0 0,0 z" />
  <path
     style="fill:#6682ef"
     id="path8"
     d="M 152.1,57.4 80,40 V 0 C 73.9,0 67.9,0.3 62.2,1 56.3,1.7 50.6,2.7 45.3,3.9 39.9,5.2 34.8,6.8 30.1,8.7 c -4.7,1.9 -8.9,4 -12.7,6.3 -3.7,2.3 -6.9,4.9 -9.5,7.6 v 0 L 80,40 v 40 c 0,0 0,0 0,0 v 40 c 0,0 0,0 0,0 -6.1,0 -12.1,-0.3 -17.8,-1 0,0 0,0 0,0 v 40 c -5.9,-0.7 -11.6,-1.7 -16.9,-3 v 40 c 5.3,1.3 11,2.3 16.9,3 0,0 0,0 0,0 5.7,0.7 11.7,1 17.8,1 0,0 0,0 0,0 6.1,0 12.1,-0.3 17.8,-1 0,0 0,0 0,0 5.9,-0.7 11.6,-1.7 16.9,-3 0,0 0,0 0,0 5.4,-1.3 10.5,-2.9 15.2,-4.8 v -40 c 0,0 0,0 0,0 4.7,-1.9 8.9,-4 12.7,-6.3 v -40 0 c 0,0 0,0 0,0 3.7,-2.3 6.9,-4.9 9.5,-7.6 V 57.4 c 0,0 0,0 0,0 z" />
  <path
     style="fill:#99acf5"
     id="path10"
     class="a"
     d="M 62.2,1 V 1 C 56.3,1.7 50.6,2.7 45.3,3.9 39.9,5.2 34.8,6.8 30.1,8.7 c -4.7,1.9 -8.9,4 -12.7,6.3 v 0 l 62.5,24.9 z" />
  <path
     style="fill:#99acf5"
     id="path12"
     class="a"
     d="m 142.5,64.9 v 0 c 0,0 0,0 0,0 v 0 L 80,40 97.8,79 v 0 c 0,0 0,0 0,0 v 40 c 0,0 1.5,-0.2 0,0 0,0 0,0 0,0 -5.7,0.6 -11.7,1 -17.8,1 0,0 0,0 0,0 v 40 c -6.1,0 -12.1,-0.3 -17.8,-1 0,0 0,0 0,0 v 40 c 0,0 0,0 0,0 5.7,0.6 11.7,1 17.8,1 0,0 0,0 0,0 6.1,0 12.1,-0.3 17.8,-1 0,0 0,0 0,0 5.9,-0.7 11.6,-1.7 16.9,-3 v -40 c 0,0 0,0 0,0 5.4,-1.3 10.5,-2.9 15.2,-4.8 v -40 c -0.7,0.3 -0.7,0.3 0,0 0,0 0,0 0,0 4.7,-1.9 8.9,-4 12.7,-6.3 v -40 c 0,0 0,0 0,0 z" />
  <path
     style="fill:#ccd5fa"
     id="path14"
     class="b"
     d="M 45.3,4 80,40 30.1,8.7 v 0 C 34.8,6.9 39.9,5.3 45.3,3.9 Z" />
  <path
     style="fill:#ccd5fa"
     id="path16"
     class="b"
     d="m 129.9,71.3 v 0 L 80,40 114.7,76 v 0 c 0,0 0,0 0,0 v 40 c 0,0 0,0 0,0 5.4,-1.3 10.5,-2.9 15.2,-4.8 v -40 c 0,0 0,0 0,0 z" />
  <path
     style="fill:#ccd5fa"
     id="path18"
     class="b"
     d="m 97.8,119 c 0,0 0,0 0,0 v 40 c 0,0 0,0 0,0 5.9,-0.7 11.6,-1.7 16.9,-3 v -40 c -5.3,1.3 -11,2.3 -16.9,3 z" />
  <path
     style="fill:#ccd5fa"
     id="path20"
     class="b"
     d="m 80,160 c 0,0 0,0 0,0 v 40 c 0,0 0,0 0,0 6.1,0 12.1,-0.3 17.8,-1 v -40 c -5.7,0.6 -11.7,1 -17.8,1 z" />
  <g
     transform="translate(-3,-3)"
     id="g4552">
    <path
       style="fill:#eeeeee"
       d="m 289.7,151.4 c -6.4,0.7 -12.3,0.9 -18,0.3 l -3.8,-5.5 c -5,4 -11.9,7.1 -20.5,7.1 -19.1,0 -33.9,-14.6 -33.9,-38.7 0,-30.5 24,-54.9 53.2,-54.9 11.8,0 20.9,4 25,8 -0.4,4.8 -3.3,16.4 -8.3,24.8 -2,-3.7 -8,-8.5 -16.9,-8.5 -14.4,0 -23.7,11.2 -23.7,25.5 0,12.2 7,19.1 18.9,19.1 1.4,0 2.7,-0.1 4,-0.3 l 1.6,-11.1 h -11.5 c 1.5,-5.4 3.8,-10.9 4.5,-16.2 h 36.4 z"
       class="c"
       id="path24" />
    <path
       style="fill:#eeeeee"
       d="m 370.6,88 c -0.1,3.8 -0.7,11 -2.1,21 l -3.6,25.9 c -1,6.9 -0.4,14.2 0.4,16.4 -5.7,0.8 -14.6,1.8 -18.4,1.8 -6.4,0 -9.6,-2.1 -9.7,-9.2 -4.2,5.7 -10.3,9.2 -17.7,9.2 -12.8,0 -20.3,-10 -20.3,-25.5 0,-25.6 20.1,-43.8 48.1,-43.8 9.8,0 18.2,2.2 23.4,4.1 z m -29.1,21.8 0.7,-4.9 c -10.9,0 -15,8.9 -15,18.8 0,5.7 1.5,8.6 4.4,8.6 4.7,0 7.9,-9.4 9.9,-22.5 z"
       class="c"
       id="path26" />
    <path
       style="fill:#eeeeee"
       d="m 412.3,75.7 -7.4,52.4 h -0.1 l 0.1,0.1 -1,6.8 c -1,6.9 -0.4,14.2 0.4,16.4 -5.7,0.8 -14.6,1.8 -18.4,1.8 -8.2,0 -11,-3.4 -9.2,-16.5 l 8.6,-60.9 c 1.6,-11.1 1.2,-17.7 0.5,-19.5 5.6,-1.3 14.3,-3.1 18,-3.1 8.3,0 11.1,3.4 8.4,22.3 z"
       class="c"
       id="path28" />
    <path
       style="fill:#eeeeee"
       d="m 416.9,127.2 3.3,-18.6 c 2,-11.5 1.7,-19.1 0.9,-21.6 5.6,-1.3 14.3,-3.1 18,-3.1 8.3,0 11.6,4.9 8.1,24.7 l -2.7,15.1 c -0.7,4.1 -0.3,6.8 3.7,6.8 8.3,0 12,-10.4 12,-21.5 0,-7.8 -1.8,-16 -5,-21 3.7,-1.7 10.7,-4 16.6,-4 8.8,0 13.6,8.4 13.6,19.9 0,20.8 -15.7,49.5 -47.3,49.5 -18,0 -24,-9.5 -21.1,-26.1 z"
       class="c"
       id="path30" />
  </g>
</svg>
